<svg width="502" height="100" viewBox="0 0 502 100" fill="none" xmlns="http://www.w3.org/2000/svg">
<path d="M321.144 80.7831L301.988 54.7791L282.851 80.7831H274.96L297.992 49.3574L276.948 20.8032H284.839L301.988 44.0964L319.136 20.8032H327.008L305.984 49.3574L329.016 80.7831H321.144ZM171.827 80.763L148.775 49.3574L169.819 20.8032H161.928L144.779 44.0964L127.651 20.8032H119.779L140.803 49.3574L117.751 80.763H125.643L144.779 54.759L163.936 80.763H171.827Z" fill="#F2F3F5"/>
<path d="M215.683 51.6265C214.498 50.6225 213.173 49.7791 211.747 49.1164C216.185 46.747 218.956 42.1285 218.956 37.1084C218.956 33.2731 217.55 20.7831 199.458 20.7831H175.1V46.6466H166.988C165.944 48.012 163.554 51.3052 162.63 52.6706H175.1V80.763H199.458C212.651 80.763 220.843 74.0562 220.843 63.253C220.863 58.5341 219.076 54.5381 215.683 51.6265ZM181.847 27.0482H199.478C204.237 27.0482 212.229 28.2329 212.229 36.5863C212.229 42.8915 207.57 46.6466 199.478 46.6466H181.847V27.0482ZM199.458 74.518H181.827V52.6907H199.458C206.145 52.6907 214.136 54.5381 214.136 63.1325C214.136 73.0321 204.94 74.518 199.458 74.518ZM252.55 19.4177C235.703 19.4177 223.916 32.3092 223.916 50.763C223.916 69.2369 235.683 82.1084 252.55 82.1084C269.377 82.1084 281.124 69.2369 281.124 50.763C281.124 32.3092 269.377 19.4177 252.55 19.4177ZM252.55 75.763C239.719 75.763 230.723 65.4819 230.723 50.763C230.723 36.0442 239.719 25.763 252.55 25.763C265.361 25.763 274.317 36.0442 274.317 50.763C274.317 65.4819 265.361 75.763 252.55 75.763ZM14.9198 14.3775L14.8796 14.4177C5.34144 23.8152 -0.0199966 36.6265 8.368e-05 50C-0.0199966 60.9437 3.57438 71.5863 10.221 80.2811C10.2812 80.3614 10.4017 80.4216 10.482 80.3614C10.5623 80.3011 10.5824 80.2007 10.5422 80.1003C6.72699 68.3132 26.2049 39.7389 36.2852 27.7711C36.3254 27.7309 36.3655 27.6907 36.3655 27.6305C36.3655 27.5703 36.3254 27.51 36.2651 27.4699C19.3173 10.6225 14.7993 14.4779 14.8595 14.4177L14.9198 14.3775ZM85.0804 14.3775L85.1205 14.4177C94.6587 23.7952 100 36.6265 99.9799 50C100 60.9437 96.4056 71.5863 89.7591 80.2811C89.6988 80.3614 89.5783 80.4216 89.498 80.3614C89.4177 80.3011 89.4177 80.2007 89.4378 80.1003C93.253 68.3132 73.7751 39.7188 63.7149 27.751C63.6747 27.7108 63.6346 27.6707 63.6346 27.6104C63.6346 27.5301 63.6747 27.4899 63.735 27.4498C80.6828 10.6024 85.1808 14.4779 85.1205 14.4177L85.0804 14.3775ZM50.0001 0C60.0804 0 68.3936 2.77108 76.0442 7.30923C76.1446 7.34939 76.1647 7.46987 76.1245 7.5502C76.0844 7.63052 75.984 7.6506 75.8836 7.63052C66.2049 5.54216 51.486 13.8956 50.1005 14.7389C50.0603 14.759 50.0402 14.7791 50.0001 14.7791C49.9599 14.7791 49.9197 14.759 49.8997 14.7389C46.2049 12.6104 32.6105 5.48192 24.0362 7.69076C23.9358 7.71084 23.8354 7.69076 23.7952 7.61044C23.7551 7.51004 23.7952 7.40963 23.8756 7.36947C31.5262 2.77108 39.9398 0 50.0001 0ZM50.0001 40.1004C50.0603 40.1004 50.1205 40.1405 50.1607 40.1807C65.1205 51.5662 90.7229 79.6787 82.9117 87.6305L82.9318 87.6104V87.6305H82.9117C73.7952 95.6224 62.0884 100.02 49.98 99.9999C37.8715 100.02 26.1647 95.6224 17.0683 87.6305L17.0483 87.6104L17.0683 87.6305C9.2571 79.6787 34.8595 51.5462 49.8193 40.1807C49.8595 40.1405 49.9398 40.1004 50.0001 40.1004ZM445.422 20.8032V70.02L409.156 20.763L403.213 20.743V80.6827H409.879V32.5502L445.422 80.7228L452.108 80.7429V20.8032H445.422ZM368.574 19.3976C351.727 19.3976 339.94 32.2891 339.94 50.7429C339.94 69.2168 351.727 82.1084 368.574 82.1084C385.401 82.1084 397.148 69.2168 397.148 50.7429C397.148 32.3092 385.401 19.3976 368.574 19.3976ZM368.574 75.763C355.743 75.763 346.747 65.4819 346.747 50.7429C346.747 36.0241 355.743 25.743 368.574 25.743C381.385 25.743 390.341 36.0241 390.341 50.7429C390.321 65.4618 381.385 75.763 368.574 75.763ZM466.325 74.8594V52.6907H499.317V46.8273H466.325V26.6265H501.566V20.763H459.618V80.7228H501.988V74.8594H466.325Z" fill="#F2F3F5"/>
</svg>
