<svg width="462" height="100" viewBox="0 0 462 100" fill="none" xmlns="http://www.w3.org/2000/svg">
<path d="M45.6934 7.84784C63.6852 5.09481 81.7112 2.50171 99.7373 0C99.7487 15.7985 99.7373 31.5856 99.7487 47.384C81.7341 47.4526 63.7194 47.7267 45.6934 47.7839C45.682 34.4642 45.682 21.156 45.6934 7.84784ZM0 14.2221C13.5481 12.1316 27.1544 10.3267 40.7597 8.62463C40.7711 21.7272 40.7711 34.8184 40.7825 47.921C27.1887 47.9095 13.5938 48.1151 0 48.0809V14.2221ZM215.239 16.4268C218.803 14.1535 223.361 18.8942 221.282 22.4583C220.276 25.0743 216.598 26.0681 214.519 24.149C211.915 22.3783 212.28 17.6719 215.239 16.4268ZM308.579 15.9584C310.864 15.947 313.148 15.947 315.433 15.947V79.9177H308.603C308.614 77.5988 308.569 75.2787 308.409 72.9609C303.462 81.8472 290.234 83.8131 282.672 77.2218C277.27 72.5725 275.624 65.0103 275.909 58.1665C275.966 51.2212 278.251 43.8417 283.78 39.3066C290.965 33.3893 303.702 33.732 308.626 42.4252C308.533 33.5961 308.613 24.7772 308.579 15.9584ZM293.82 41.2497C288.337 42.1179 284.624 47.1213 283.597 52.2961C282.248 58.5332 282.488 65.7517 286.419 71.0532C290.668 76.6952 300.047 76.822 304.593 71.4873C307.689 68.2659 308.568 63.6509 308.591 59.3329C308.625 54.775 309.014 49.6345 305.987 45.8305C303.313 42.0265 298.321 40.313 293.82 41.2497ZM130.169 19.3626C132.739 19.374 135.31 19.374 137.891 19.4083C141.902 33.8931 145.854 48.4007 149.874 62.8958C150.74 65.9422 151.366 69.0516 151.748 72.1956C155.929 54.4094 161.64 37.0002 166.438 19.3626C168.666 19.374 170.893 19.374 173.122 19.3854C176.652 31.9397 179.952 44.5511 183.448 57.1167C184.74 62.1202 186.407 67.0551 186.933 72.2287C190.714 54.4654 196.105 37.0562 200.388 19.4083C202.924 19.374 205.46 19.374 207.996 19.374C202.467 39.5819 196.71 59.7327 191.114 79.9177H182.876C178.821 65.4227 174.801 50.9127 170.7 36.4405C170.014 34.0987 169.728 31.6769 169.512 29.2552C169.192 31.3457 168.895 33.459 168.357 35.5038C164.211 50.2627 160.007 64.9977 155.974 79.7807C153.234 79.9292 150.491 79.9406 147.75 79.9177C141.867 59.7441 136.029 39.5476 130.169 19.3626ZM238.817 43.5001C242.735 36.5204 251.873 33.3105 259.241 36.5433C265.102 38.828 267.284 45.6123 267.466 51.3936C267.785 60.8967 267.523 70.4124 267.603 79.9177C265.319 79.9177 263.034 79.9177 260.749 79.9063C260.645 70.7791 260.989 61.629 260.588 52.5017C260.406 47.9781 258.486 42.5406 253.564 41.3868C246.379 39.2164 239.205 45.6934 238.975 52.7987C238.77 61.8346 238.964 70.8819 238.895 79.9177H232.041C232.054 65.4444 232.054 50.9824 232.041 36.509H238.908C238.897 38.8394 238.885 41.1697 238.817 43.5001ZM342.095 35.4352C348.207 34.8983 354.979 35.8579 359.573 40.2787C364.759 45.0651 366.301 52.5017 366.016 59.2986C365.936 65.4101 363.674 71.613 359.196 75.8739C349.852 84.3729 332.499 82.5108 326.57 70.8248C321.91 61.035 322.846 47.4869 331.356 40.0503C334.407 37.4686 338.268 36.292 342.095 35.4352ZM340.861 41.6495C330.796 44.7453 329.094 57.8935 332.236 66.541C334.737 74.2175 344.493 77.6217 351.495 74.0347C356.236 71.8529 358.395 66.5067 358.852 61.6061C359.365 55.883 358.909 49.3957 354.865 44.928C351.439 41.0669 345.636 40.233 340.861 41.6495ZM446.036 35.4124C450.32 35.1154 454.684 35.5266 458.717 37.103C459.835 39.2278 458.968 42.0151 459.231 44.4026C454.422 41.3982 447.795 39.4791 442.576 42.5405C439 44.4825 438.829 50.2273 442.313 52.3646C447.305 55.5974 453.645 56.4428 458.077 60.6009C462.967 65.3073 461.779 74.3546 456.055 77.8844C449.099 82.3167 439.937 81.8826 432.649 78.5013C432.649 75.9424 432.638 73.3847 432.592 70.8248C437.778 74.7772 445.066 76.9705 451.269 74.1604C454.89 72.3441 455.073 66.7809 451.886 64.4391C446.894 60.7608 440.053 60.1782 435.619 55.586C431.245 51.1766 432.032 43.066 436.911 39.3306C439.433 37.0117 442.849 36.3148 446.036 35.4124ZM213.765 36.5204C216.05 36.509 218.334 36.509 220.619 36.509V79.9177H213.765C213.765 65.4444 213.777 50.9824 213.765 36.5204ZM368.871 36.509H376.022C378.855 46.8472 381.598 57.2081 384.487 67.5348C385.07 69.4757 385.287 71.4873 385.492 73.4978C388.725 61.0475 392.815 48.8234 396.482 36.4976L402.731 36.5319C405.873 48.8691 409.78 61.0235 412.383 73.4864C415.069 61.0909 418.883 48.9719 421.865 36.6461C424.161 36.5319 426.458 36.4976 428.764 36.4748C424.412 50.9493 420.242 65.4672 415.868 79.9177H408.762C405.677 68.1517 401.679 56.6141 399.178 44.7224C396.196 56.6027 392.061 68.1631 388.657 79.9177H381.791C377.496 65.4444 373.109 51.0041 368.871 36.509ZM0 52.2047C13.5835 52.159 27.1647 52.3761 40.7471 52.3532C40.7471 65.4901 40.7814 78.6269 40.7597 91.7638C27.1887 89.7521 13.5938 87.9941 0 86.1549V52.2047ZM45.6134 52.7302H99.7373C99.7601 68.483 99.7373 84.2358 99.7373 100C81.7455 97.3041 63.7194 94.8024 45.6934 92.3589C45.6706 79.1524 45.6363 65.947 45.6134 52.7302Z" fill="#F2F3F5"/>
</svg>
