<svg width="464" height="100" viewBox="0 0 464 100" fill="none" xmlns="http://www.w3.org/2000/svg">
<path d="M322.622 68.3999V39.5637C322.622 33.681 325.368 29.4684 331.224 29.4684H367.344C367.565 29.4684 367.778 29.249 367.778 29.0316V23.2942C367.776 23.2438 367.765 23.1942 367.744 23.1479H323.58C314.007 24.3649 309.33 31.0364 309.33 39.5637V68.399C309.33 74.2817 306.508 78.4943 300.731 78.4943H262.585C262.369 78.4943 262.151 78.6405 262.151 78.9301V84.6685C262.151 84.9071 262.298 85.0899 262.469 85.1495H305.778C317.065 84.8532 322.622 77.6468 322.622 68.3999ZM174.226 85.1495H186.908C187.003 85.112 187.085 85.0458 187.142 84.9601C187.199 84.8744 187.228 84.7732 187.225 84.6704V66.2931C187.225 60.4105 190.548 56.3421 195.389 56.3421H247.627C259.404 56.3421 265.112 49.0789 265.112 39.5637C265.112 31.0364 260.441 24.3649 250.863 23.1479H173.991C173.969 23.196 173.931 23.2336 173.931 23.2942V29.0316C173.931 29.3221 174.075 29.4684 174.364 29.4684H243.219C249.072 29.4684 251.817 33.681 251.817 39.5637C251.817 45.4473 249.072 49.66 243.219 49.66H188.742C180.289 49.66 173.931 56.852 173.931 66.2931V84.6714C173.93 84.9071 174.032 85.0899 174.226 85.1495Z" fill="#F2F3F5"/>
<path d="M367.566 78.4962H436.928C437.141 78.4962 437.285 78.6405 437.285 78.7868V84.6704C437.285 84.961 437.506 85.1062 437.718 85.1062H450.22C450.442 85.1062 450.652 84.961 450.652 84.6704V78.932C450.652 78.7137 450.874 78.4962 451.086 78.4962H463.512C463.801 78.4962 463.946 78.2779 463.946 78.0614V72.2499C463.946 72.0306 463.801 71.8141 463.512 71.8141H451.086C450.874 71.8141 450.652 71.5948 450.652 71.3793V29.4684C450.652 26.0484 449.383 23.8704 447.245 23.1479H443.628C442.5 23.4375 441.275 23.956 439.961 24.7458L365.255 70.8694C362.364 72.6847 361.351 74.7175 362.074 76.2432C362.653 77.5515 364.31 78.4962 367.566 78.4962ZM378.403 70.7963L436.273 34.9884C436.639 34.6978 437.362 34.771 437.362 35.5694V71.3793C437.362 71.5977 437.141 71.8141 436.928 71.8141H378.76C378.259 71.8141 378.036 71.6708 377.97 71.5236C377.891 71.2321 378.035 71.0147 378.403 70.7963Z" fill="#F2F3F5"/>
<path d="M48.46 0C54.0955 1.05052 59.6347 2.55125 65.148 4.11548C68.3005 5.03131 71.4463 5.97889 74.5709 6.98804C79.4791 8.55131 84.3661 10.3214 88.8115 12.9612C90.8029 14.1704 92.7154 15.5365 94.3498 17.2027C96.1205 18.9412 97.5709 20.9781 98.6346 23.22C100.573 27.2682 101.237 31.7906 101.433 36.237C101.525 39.1384 101.52 42.0649 100.977 44.9288C100.527 47.4175 99.7265 49.8716 98.3951 52.0332C97.2195 53.9418 95.5851 55.5936 93.6014 56.6576C91.6985 57.6831 89.5205 58.1718 87.3627 58.1285C84.09 58.1622 80.9144 57.1194 77.9774 55.7514C77.9235 45.9841 77.9687 36.2149 77.9543 26.4495C77.9341 24.6823 78.0543 22.8968 77.6974 21.1536C77.4464 19.803 76.8961 18.4417 75.835 17.5249C75.1327 16.891 74.2207 16.5331 73.3049 16.3397C72.3785 16.1637 71.3905 16.5572 70.8171 17.3008C69.8638 18.4918 69.6137 20.0733 69.5704 21.5558C69.5627 47.7042 69.58 73.8535 69.5627 100C62.5276 97.7706 55.4934 95.5384 48.46 93.3035C48.4533 62.2026 48.4562 31.1018 48.46 0V0ZM16.8426 66.1709C26.0134 62.9241 35.1747 59.6446 44.3493 56.4094C44.3638 60.0092 44.3493 63.611 44.3551 67.2147C44.3493 67.7034 44.3801 68.194 44.3195 68.6798C37.0679 71.2503 29.8297 73.866 22.5858 76.4529C21.5815 76.8329 20.5511 77.2619 19.7767 78.0287C19.416 78.3884 19.1216 78.9204 19.3188 79.4351C19.567 80.0421 20.1865 80.3731 20.758 80.6222C22.3472 81.2687 24.0846 81.3611 25.7777 81.438C27.6652 81.4082 29.5613 81.2668 31.4093 80.8589C32.659 80.6126 33.8615 80.1922 35.0525 79.7449C38.1482 78.6241 41.244 77.4967 44.3445 76.3875C44.3667 79.4332 44.3484 82.4808 44.3542 85.5304C44.3445 86.1394 44.3821 86.7522 44.3215 87.3582C40.5138 88.0422 36.661 88.5059 32.7908 88.5675C24.9976 88.7435 17.186 87.5372 9.78336 85.1013C7.35621 84.3981 4.94349 83.4611 2.91557 81.92C1.79964 81.0561 0.80107 79.97 0.293129 78.6338C-0.13208 77.5015 -0.101296 76.1951 0.428772 75.1032C0.9396 74.0132 1.83235 73.1532 2.81552 72.4836C5.08971 70.9127 7.5996 69.714 10.1412 68.6462C12.3336 67.713 14.6059 66.9857 16.8426 66.1709Z" fill="#F2F3F5"/>
<path d="M90.6317 62.0688C92.7115 61.8283 94.8049 61.7716 96.8963 61.6965C103.775 61.7225 110.69 62.5777 117.27 64.6422C118.561 65.0347 119.811 65.5436 121.098 65.9525C123.391 66.7904 125.686 67.8063 127.522 69.4551C128.624 70.4604 129.576 71.8159 129.588 73.3628C129.654 74.6231 129.084 75.8313 128.266 76.7597C126.712 78.5028 124.657 79.7015 122.594 80.7463C120.398 81.866 118.037 82.5885 115.734 83.4408C101.677 88.4885 87.6187 93.5343 73.5647 98.5877C73.5618 94.6492 73.5685 90.7127 73.5618 86.779C73.5829 86.6213 73.4973 86.3471 73.7186 86.3057C84.4142 82.501 95.1069 78.6847 105.802 74.8684C107.248 74.3277 108.805 73.9362 110.032 72.9559C110.534 72.5615 111.025 71.9342 110.779 71.257C110.522 70.6654 109.908 70.3383 109.344 70.093C107.743 69.459 106 69.3368 104.297 69.2887C101.631 69.307 98.9425 69.635 96.4066 70.4903C88.7885 73.1598 81.1847 75.8621 73.5647 78.5231C73.5656 74.295 73.5618 70.0699 73.5666 65.8428C79.0779 63.9082 84.8346 62.7355 90.6317 62.0688Z" fill="#F2F3F5"/>
</svg>
