<svg width="65" height="24" viewBox="0 0 65 24" fill="none" xmlns="http://www.w3.org/2000/svg">
<g clip-path="url(#clip0)">
<path d="M3.13498 9.04793C3.13498 9.04793 4.02098 7.90593 3.44798 6.31993C2.87298 4.73493 1.53398 4.13293 1.53398 4.13293C1.53398 4.13293 0.531983 5.49393 1.09198 7.03893C1.65098 8.58493 3.13498 9.04793 3.13498 9.04793Z" fill="#F2F3F5"/>
<path d="M5.59318 9.85897C5.59318 9.85897 7.14218 9.73497 8.02918 8.34997C8.91618 6.96597 8.23818 5.41797 8.23818 5.41797C8.23818 5.41797 6.80018 5.70997 5.88918 7.13097C4.97918 8.55097 5.59318 9.85897 5.59318 9.85897Z" fill="#F2F3F5"/>
<path d="M5.75062 11.689C5.03362 13.216 5.81262 14.434 5.81262 14.434C5.81262 14.434 7.33362 14.108 8.03162 12.621C8.72862 11.132 7.85462 9.68591 7.85462 9.68591C7.85462 9.68591 6.46762 10.1619 5.75062 11.689Z" fill="#F2F3F5"/>
<path d="M9.25206 12.9189C9.25206 12.9189 7.91506 13.5249 7.34506 15.1109C6.77506 16.6999 7.66406 17.8379 7.66406 17.8379C7.66406 17.8379 9.14606 17.3709 9.70206 15.8239C10.2571 14.2769 9.25206 12.9189 9.25206 12.9189Z" fill="#F2F3F5"/>
<path d="M10.3652 21.2709C10.3652 21.2709 11.6512 20.3959 11.7382 18.7549C11.8242 17.1129 10.4692 16.1029 10.4692 16.1029C10.4692 16.1029 9.36322 17.0679 9.27422 18.7519C9.18622 20.4349 10.3652 21.2709 10.3652 21.2709Z" fill="#F2F3F5"/>
<path d="M5.10947 5.99187C5.10947 5.99187 6.48047 5.53387 6.88247 3.89687C7.28547 2.25987 6.50647 1.01587 6.50647 1.01587C6.50647 1.01587 4.91847 1.59187 4.52547 3.18887C4.13347 4.78487 5.10947 5.99187 5.10947 5.99187Z" fill="#F2F3F5"/>
<path d="M3.13363 12.529C3.13363 12.529 3.64263 11.176 2.62763 9.83096C1.61063 8.48496 0.154627 8.30396 0.154627 8.30396C0.154627 8.30396 -0.401373 9.89996 0.588627 11.212C1.57863 12.525 3.13363 12.529 3.13363 12.529Z" fill="#F2F3F5"/>
<path d="M4.26997 16.0989C4.26997 16.0989 4.46497 14.6669 3.17697 13.5809C1.88697 12.4939 0.426971 12.6419 0.426971 12.6419C0.426971 12.6419 0.238971 14.3219 1.49497 15.3809C2.75297 16.4389 4.26997 16.0989 4.26997 16.0989Z" fill="#F2F3F5"/>
<path d="M5.99999 19.051C5.99999 19.051 5.75499 17.627 4.19699 16.983C2.63799 16.337 1.29199 16.92 1.29199 16.92C1.29199 16.92 1.62199 18.578 3.13999 19.208C4.65799 19.835 5.99999 19.051 5.99999 19.051Z" fill="#F2F3F5"/>
<path d="M6.75528 20.277C5.13128 19.823 3.86328 20.562 3.86328 20.562C3.86328 20.562 4.38828 22.168 5.97028 22.611C7.55428 23.054 8.79228 22.115 8.79228 22.115C8.79228 22.115 8.37928 20.73 6.75528 20.277Z" fill="#F2F3F5"/>
<path d="M5.27838 6.96792L4.55638 6.61292C4.51838 6.69192 0.804386 14.581 11.2404 23.502L11.7624 22.891C1.82638 14.396 5.13238 7.26692 5.27838 6.96792Z" fill="#F2F3F5"/>
<path d="M61.5483 9.03292C61.5483 9.03292 60.6613 7.89092 61.2353 6.30592C61.8083 4.71992 63.1483 4.11792 63.1483 4.11792C63.1483 4.11792 64.1493 5.47792 63.5893 7.02392C63.0323 8.56992 61.5483 9.03292 61.5483 9.03292Z" fill="#F2F3F5"/>
<path d="M59.0891 9.84395C59.0891 9.84395 57.5401 9.71895 56.6521 8.33495C55.7651 6.95095 56.4431 5.40295 56.4431 5.40295C56.4431 5.40295 57.8811 5.69495 58.7931 7.11495C59.7031 8.53595 59.0891 9.84395 59.0891 9.84395Z" fill="#F2F3F5"/>
<path d="M58.9321 11.673C59.6491 13.2 58.8701 14.418 58.8701 14.418C58.8701 14.418 57.3491 14.092 56.6501 12.605C55.9541 11.116 56.8271 9.66992 56.8271 9.66992C56.8271 9.66992 58.2151 10.1469 58.9321 11.673Z" fill="#F2F3F5"/>
<path d="M55.431 12.9039C55.431 12.9039 56.767 13.5089 57.338 15.0979C57.908 16.6859 57.018 17.8239 57.018 17.8239C57.018 17.8239 55.537 17.3559 54.981 15.8089C54.425 14.2619 55.431 12.9039 55.431 12.9039Z" fill="#F2F3F5"/>
<path d="M54.3154 21.2549C54.3154 21.2549 53.0304 20.3809 52.9434 18.7389C52.8574 17.0969 54.2134 16.0859 54.2134 16.0859C54.2134 16.0859 55.3174 17.0509 55.4074 18.7359C55.4964 20.4209 54.3154 21.2549 54.3154 21.2549Z" fill="#F2F3F5"/>
<path d="M59.5712 5.977C59.5712 5.977 58.2022 5.519 57.8002 3.882C57.3972 2.245 58.1772 1 58.1772 1C58.1772 1 59.7652 1.576 60.1572 3.174C60.5492 4.769 59.5712 5.977 59.5712 5.977Z" fill="#F2F3F5"/>
<path d="M61.5486 12.514C61.5486 12.514 61.0397 11.161 62.0537 9.81594C63.0707 8.46994 64.5276 8.28894 64.5276 8.28894C64.5276 8.28894 65.0846 9.88494 64.0936 11.197C63.1026 12.51 61.5486 12.514 61.5486 12.514Z" fill="#F2F3F5"/>
<path d="M60.413 16.0839C60.413 16.0839 60.217 14.6519 61.506 13.5639C62.796 12.4779 64.256 12.6259 64.256 12.6259C64.256 12.6259 64.444 14.3069 63.187 15.3649C61.93 16.4229 60.413 16.0839 60.413 16.0839Z" fill="#F2F3F5"/>
<path d="M58.6816 19.0359C58.6816 19.0359 58.9276 17.6109 60.4856 16.9659C62.0456 16.3199 63.3906 16.9029 63.3906 16.9029C63.3906 16.9029 63.0606 18.5609 61.5426 19.1899C60.0236 19.8199 58.6816 19.0359 58.6816 19.0359Z" fill="#F2F3F5"/>
<path d="M57.9256 20.2619C59.5496 19.8089 60.8186 20.5469 60.8186 20.5469C60.8186 20.5469 60.2946 22.1519 58.7116 22.5979C57.1286 23.0389 55.8906 22.0999 55.8906 22.0999C55.8906 22.0999 56.3026 20.7159 57.9256 20.2619Z" fill="#F2F3F5"/>
<path d="M59.4029 6.9529L60.1269 6.5979C60.1649 6.6769 63.8789 14.5659 53.4419 23.4859L52.9209 22.8749C62.8549 14.3819 59.5489 7.2509 59.4029 6.9529Z" fill="#F2F3F5"/>
<path fill-rule="evenodd" clip-rule="evenodd" d="M46 2.90796H18V12.908H46V2.90796ZM23.3604 8.72595V9.25995L24.0078 9.90796H25.7842L26.4316 9.25995V6.35596L25.7842 5.70795H23.9482L23.2998 6.35596V7.72998L23.9482 8.37793H25.2744L25.6162 8.03595V9.00195L25.4062 9.21198H24.3857L24.1758 9.00195V8.72595H23.3604ZM25.6162 7.29193L25.2256 7.68195H24.3262L24.1162 7.47199V6.61395L24.3262 6.40393H25.4062L25.6162 6.61395V7.29193ZM26.9141 9.26593V9.64996L27.1719 9.90796H27.6094L27.8623 9.64398V9.27197L27.6094 9.00794H27.1719L26.9141 9.26593ZM30.0518 6.40393V6.45795L28.3535 9.90796H29.2178L30.9043 6.47595V5.70795H27.9521V6.40393H30.0518ZM34.1885 5.70795H33.373L31.0566 9.90796H31.873L34.1885 5.70795ZM34.3418 7.04596L35.2471 6.57794V9.90796H36.0635V5.70795H35.4092L34.3418 6.29596V7.04596ZM36.8125 6.40393V9.21198L37.5088 9.90796H39.3682L40.0645 9.21198V6.40393L39.3682 5.70795H37.5088L36.8125 6.40393ZM39.248 8.94794L38.9844 9.21198H37.8926L37.6289 8.94794V6.66797L37.8926 6.40393H38.9844L39.248 6.66797V8.94794Z" fill="#F2F3F5"/>
<path d="M15.3999 19.358V16.408H15.7799V19.233L16.1199 19.568H17.2599L17.5999 19.233V16.408H17.9799V19.358L17.4299 19.908H15.9499L15.3999 19.358ZM19.2038 19.448V19.128H19.5788V19.323L19.8188 19.568H21.0188L21.2688 19.313V18.528L21.0188 18.283H19.6738L19.2138 17.823V16.868L19.6738 16.408H21.1438L21.6038 16.868V17.193H21.2338V16.993L20.9838 16.748H19.8388L19.5888 16.993V17.698L19.8388 17.943H21.1838L21.6438 18.403V19.438L21.1738 19.908H19.6638L19.2038 19.448ZM22.8452 16.408H25.1052V16.748H23.2252V17.978H24.9602V18.318H23.2252V19.568H25.1052V19.908H22.8452V16.408ZM28.7354 18.838V19.908H28.3554V18.943L27.8754 18.438H26.6354V19.908H26.2554V16.408H28.2554L28.7154 16.868V17.973L28.3104 18.378L28.7354 18.838ZM26.6354 18.108H28.0904L28.3404 17.863V16.983L28.0904 16.738H26.6354V18.108ZM31.6579 19.448V19.128H32.0329V19.323L32.2729 19.568H33.4729L33.7229 19.313V18.528L33.4729 18.283H32.1279L31.6679 17.823V16.868L32.1279 16.408H33.5979L34.0579 16.868V17.193H33.6879V16.993L33.4379 16.748H32.2929L32.0429 16.993V17.698L32.2929 17.943H33.6379L34.0979 18.403V19.438L33.6279 19.908H32.1179L31.6579 19.448ZM35.2493 19.358V16.958L35.7993 16.408H37.2993L37.8293 16.938V17.258H37.4493V17.063L37.1293 16.748H35.9693L35.6293 17.083V19.233L35.9693 19.568H37.1293L37.4493 19.253V19.058H37.8293V19.378L37.2993 19.908H35.7993L35.2493 19.358ZM38.9036 19.358V16.958L39.4536 16.408H41.0336L41.5836 16.958V19.358L41.0336 19.908H39.4536L38.9036 19.358ZM40.8636 19.568L41.2036 19.233V17.083L40.8636 16.748H39.6236L39.2836 17.083V19.233L39.6236 19.568H40.8636ZM45.3125 18.838V19.908H44.9325V18.943L44.4525 18.438H43.2125V19.908H42.8325V16.408H44.8325L45.2925 16.868V17.973L44.8875 18.378L45.3125 18.838ZM43.2125 18.108H44.6675L44.9175 17.863V16.983L44.6675 16.738H43.2125V18.108ZM46.5894 16.408H48.8494V16.748H46.9694V17.978H48.7044V18.318H46.9694V19.568H48.8494V19.908H46.5894V16.408Z" fill="#F2F3F5"/>
</g>
<defs>
<clipPath id="clip0">
<rect width="65" height="23" fill="white" transform="translate(0 0.907959)"/>
</clipPath>
</defs>
</svg>
