<svg width="65" height="24" viewBox="0 0 65 24" fill="none" xmlns="http://www.w3.org/2000/svg">
<g clip-path="url(#clip0)">
<path d="M3.13498 9.04793C3.13498 9.04793 4.02098 7.90593 3.44798 6.31993C2.87298 4.73493 1.53398 4.13293 1.53398 4.13293C1.53398 4.13293 0.531983 5.49393 1.09198 7.03893C1.65098 8.58493 3.13498 9.04793 3.13498 9.04793Z" fill="#F2F3F5"/>
<path d="M5.59318 9.85897C5.59318 9.85897 7.14218 9.73497 8.02918 8.34997C8.91618 6.96597 8.23818 5.41797 8.23818 5.41797C8.23818 5.41797 6.80018 5.70997 5.88918 7.13097C4.97918 8.55097 5.59318 9.85897 5.59318 9.85897Z" fill="#F2F3F5"/>
<path d="M5.75062 11.689C5.03362 13.216 5.81262 14.434 5.81262 14.434C5.81262 14.434 7.33362 14.108 8.03162 12.621C8.72862 11.132 7.85462 9.68591 7.85462 9.68591C7.85462 9.68591 6.46762 10.1619 5.75062 11.689Z" fill="#F2F3F5"/>
<path d="M9.25206 12.9189C9.25206 12.9189 7.91506 13.5249 7.34506 15.1109C6.77506 16.6999 7.66406 17.8379 7.66406 17.8379C7.66406 17.8379 9.14606 17.3709 9.70206 15.8239C10.2571 14.2769 9.25206 12.9189 9.25206 12.9189Z" fill="#F2F3F5"/>
<path d="M10.3652 21.2709C10.3652 21.2709 11.6512 20.3959 11.7382 18.7549C11.8242 17.1129 10.4692 16.1029 10.4692 16.1029C10.4692 16.1029 9.36322 17.0679 9.27422 18.7519C9.18622 20.4349 10.3652 21.2709 10.3652 21.2709Z" fill="#F2F3F5"/>
<path d="M5.10947 5.99187C5.10947 5.99187 6.48047 5.53387 6.88247 3.89687C7.28547 2.25987 6.50647 1.01587 6.50647 1.01587C6.50647 1.01587 4.91847 1.59187 4.52547 3.18887C4.13347 4.78487 5.10947 5.99187 5.10947 5.99187Z" fill="#F2F3F5"/>
<path d="M3.13363 12.529C3.13363 12.529 3.64263 11.176 2.62763 9.83096C1.61063 8.48496 0.154627 8.30396 0.154627 8.30396C0.154627 8.30396 -0.401373 9.89996 0.588627 11.212C1.57863 12.525 3.13363 12.529 3.13363 12.529Z" fill="#F2F3F5"/>
<path d="M4.26997 16.0989C4.26997 16.0989 4.46497 14.6669 3.17697 13.5809C1.88697 12.4939 0.426971 12.6419 0.426971 12.6419C0.426971 12.6419 0.238971 14.3219 1.49497 15.3809C2.75297 16.4389 4.26997 16.0989 4.26997 16.0989Z" fill="#F2F3F5"/>
<path d="M5.99999 19.051C5.99999 19.051 5.75499 17.627 4.19699 16.983C2.63799 16.337 1.29199 16.92 1.29199 16.92C1.29199 16.92 1.62199 18.578 3.13999 19.208C4.65799 19.835 5.99999 19.051 5.99999 19.051Z" fill="#F2F3F5"/>
<path d="M6.75528 20.277C5.13128 19.823 3.86328 20.562 3.86328 20.562C3.86328 20.562 4.38828 22.168 5.97028 22.611C7.55428 23.054 8.79228 22.115 8.79228 22.115C8.79228 22.115 8.37928 20.73 6.75528 20.277Z" fill="#F2F3F5"/>
<path d="M5.27838 6.96792L4.55638 6.61292C4.51838 6.69192 0.804386 14.581 11.2404 23.502L11.7624 22.891C1.82638 14.396 5.13238 7.26692 5.27838 6.96792Z" fill="#F2F3F5"/>
<path d="M61.5483 9.03292C61.5483 9.03292 60.6613 7.89092 61.2353 6.30592C61.8083 4.71992 63.1483 4.11792 63.1483 4.11792C63.1483 4.11792 64.1493 5.47792 63.5893 7.02392C63.0323 8.56992 61.5483 9.03292 61.5483 9.03292Z" fill="#F2F3F5"/>
<path d="M59.0891 9.84395C59.0891 9.84395 57.5401 9.71895 56.6521 8.33495C55.7651 6.95095 56.4431 5.40295 56.4431 5.40295C56.4431 5.40295 57.8811 5.69495 58.7931 7.11495C59.7031 8.53595 59.0891 9.84395 59.0891 9.84395Z" fill="#F2F3F5"/>
<path d="M58.9321 11.673C59.6491 13.2 58.8701 14.418 58.8701 14.418C58.8701 14.418 57.3491 14.092 56.6501 12.605C55.9541 11.116 56.8271 9.66992 56.8271 9.66992C56.8271 9.66992 58.2151 10.1469 58.9321 11.673Z" fill="#F2F3F5"/>
<path d="M55.431 12.9039C55.431 12.9039 56.767 13.5089 57.338 15.0979C57.908 16.6859 57.018 17.8239 57.018 17.8239C57.018 17.8239 55.537 17.3559 54.981 15.8089C54.425 14.2619 55.431 12.9039 55.431 12.9039Z" fill="#F2F3F5"/>
<path d="M54.3154 21.2549C54.3154 21.2549 53.0304 20.3809 52.9434 18.7389C52.8574 17.0969 54.2134 16.0859 54.2134 16.0859C54.2134 16.0859 55.3174 17.0509 55.4074 18.7359C55.4964 20.4209 54.3154 21.2549 54.3154 21.2549Z" fill="#F2F3F5"/>
<path d="M59.5712 5.977C59.5712 5.977 58.2022 5.519 57.8002 3.882C57.3972 2.245 58.1772 1 58.1772 1C58.1772 1 59.7652 1.576 60.1572 3.174C60.5492 4.769 59.5712 5.977 59.5712 5.977Z" fill="#F2F3F5"/>
<path d="M61.5486 12.514C61.5486 12.514 61.0397 11.161 62.0537 9.81594C63.0707 8.46994 64.5276 8.28894 64.5276 8.28894C64.5276 8.28894 65.0846 9.88494 64.0936 11.197C63.1026 12.51 61.5486 12.514 61.5486 12.514Z" fill="#F2F3F5"/>
<path d="M60.413 16.0839C60.413 16.0839 60.217 14.6519 61.506 13.5639C62.796 12.4779 64.256 12.6259 64.256 12.6259C64.256 12.6259 64.444 14.3069 63.187 15.3649C61.93 16.4229 60.413 16.0839 60.413 16.0839Z" fill="#F2F3F5"/>
<path d="M58.6816 19.0359C58.6816 19.0359 58.9276 17.6109 60.4856 16.9659C62.0456 16.3199 63.3906 16.9029 63.3906 16.9029C63.3906 16.9029 63.0606 18.5609 61.5426 19.1899C60.0236 19.8199 58.6816 19.0359 58.6816 19.0359Z" fill="#F2F3F5"/>
<path d="M57.9256 20.2619C59.5496 19.8089 60.8186 20.5469 60.8186 20.5469C60.8186 20.5469 60.2946 22.1519 58.7116 22.5979C57.1286 23.0389 55.8906 22.0999 55.8906 22.0999C55.8906 22.0999 56.3026 20.7159 57.9256 20.2619Z" fill="#F2F3F5"/>
<path d="M59.4029 6.9529L60.1269 6.5979C60.1649 6.6769 63.8789 14.5659 53.4419 23.4859L52.9209 22.8749C62.8549 14.3819 59.5489 7.2509 59.4029 6.9529Z" fill="#F2F3F5"/>
<path fill-rule="evenodd" clip-rule="evenodd" d="M46 2.90796H18V12.908H46V2.90796ZM20.3301 6.39795V9.21796L21.0195 9.90796H23.1797L23.8701 9.21796V6.39795L23.1797 5.70795H21.0195L20.3301 6.39795ZM23.0537 8.90595L22.748 9.21198H21.4521L21.1465 8.90595V6.70996L21.4521 6.40393H22.748L23.0537 6.70996V8.90595ZM25.0137 5.70795H24.1729L25.667 9.90796H26.459L27.9531 5.70795H27.1133L26.0693 8.93598H26.0576L25.0137 5.70795ZM31.4414 5.70795H28.4053V9.90796H31.4414V9.21796H29.2217V8.13794H31.2676V7.45996H29.2217V6.39795H31.4414V5.70795ZM35.3447 9.90796V8.51593L34.9121 8.04193L35.3203 7.62793V6.35596L34.6787 5.70795H32.0439V9.90796H32.8604V8.29999H34.168L34.5283 8.70197V9.90796H35.3447ZM34.3066 7.62793H32.8604V6.39197H34.3066L34.5166 6.60193V7.41797L34.3066 7.62793ZM37.4883 7.04596L38.3936 6.57794V9.90796H39.21V5.70795H38.5557L37.4883 6.29596V7.04596ZM39.959 6.40393V9.21198L40.6553 9.90796H42.5146L43.2109 9.21198V6.40393L42.5146 5.70795H40.6553L39.959 6.40393ZM42.3945 8.94794L42.1309 9.21198H41.0391L40.7754 8.94794V6.66797L41.0391 6.40393H42.1309L42.3945 6.66797V8.94794Z" fill="#F2F3F5"/>
<path d="M18.3451 16.408H18.7551L20.0001 19.908H19.6051L19.2801 18.963H17.8201L17.4951 19.908H17.1001L18.3451 16.408ZM19.1701 18.633L18.5551 16.848H18.5451L17.9351 18.633H19.1701ZM22.0761 16.408H22.4611L23.0211 19.368H23.0311L23.8711 16.408H24.2411L25.0511 19.368H25.0611L25.6061 16.408H25.9911L25.2861 19.908H24.8761L24.0611 16.948H24.0511L23.1911 19.908H22.7811L22.0761 16.408ZM29.3129 16.408H29.7229L30.9679 19.908H30.5729L30.2479 18.963H28.7879L28.4629 19.908H28.0679L29.3129 16.408ZM30.1379 18.633L29.5229 16.848H29.5129L28.9029 18.633H30.1379ZM35.9485 18.838V19.908H35.5685V18.943L35.0885 18.438H33.8485V19.908H33.4685V16.408H35.4685L35.9285 16.868V17.973L35.5235 18.378L35.9485 18.838ZM33.8485 18.108H35.3035L35.5535 17.863V16.983L35.3035 16.738H33.8485V18.108ZM38.7253 16.408H40.7453L41.2953 16.958V19.358L40.7453 19.908H38.7253V16.408ZM40.5753 19.568L40.9153 19.233V17.083L40.5753 16.748H39.1053V19.568H40.5753ZM43.9706 19.448V19.128H44.3456V19.323L44.5856 19.568H45.7856L46.0356 19.313V18.528L45.7856 18.283H44.4406L43.9806 17.823V16.868L44.4406 16.408H45.9106L46.3706 16.868V17.193H46.0006V16.993L45.7506 16.748H44.6056L44.3556 16.993V17.698L44.6056 17.943H45.9506L46.4106 18.403V19.438L45.9406 19.908H44.4306L43.9706 19.448Z" fill="#F2F3F5"/>
</g>
<defs>
<clipPath id="clip0">
<rect width="65" height="23" fill="white" transform="translate(0 0.907959)"/>
</clipPath>
</defs>
</svg>
